# xmcd
#
# Track frame offsets:
#  150
#  11581
#  27172
#  38442
#  53952
#  71729
#  81395
#  101751
#  111075
#  122454
#  134847
#  145462
#  156680
#  166588
#  179215
#  197407
#  209659
#  219676
#
# Disc length: 3081 seconds
#
# Revision: 0
# Processed by: cddbd v1.5.2PL0 Copyright (c) Steve Scherf et al.
# Submitted via: Collectorz.com_Music_Collector 6.11
#
DISCID=140c0712
DTITLE=Various Artist - Country Classics
DYEAR=1900
DGENRE=Country
TTITLE0=Bobby Bare - That's How I Got To Memphis
TTITLE1=Cash McCall - Across The Wide Missouri
TTITLE2=Glen Campbell - Heartache Number Three
TTITLE3=Bobby Bare - Leaving On A Jet Plane
TTITLE4=Glen Campbell - Southern Nights
TTITLE5=Hank Locklin - Happy Journey
TTITLE6=Glen Campbell - Amazing Grace
TTITLE7=Hank Locklin - Flying South
TTITLE8=Lynn Anderson - Listen To A Country Son
TTITLE9=Glen Campbell - By The Time I Get To Phoenix
TTITLE10=Billie Joe Spears - I'm So Lonesome I Could Cry
TTITLE11=Patsy Cline - Just Out Of Reach
TTITLE12=Glen Campbell - Gentle On My Mind
TTITLE13=Lynn Anderson - Top Of The World
TTITLE14=It's Your World (Boys and Girls)
TTITLE15=Lynn Anderson - Stand By Your Man
TTITLE16=Billie Joe Spears - I Stayed Long Enough
TTITLE17=Glen Campbell - It's Only Make Believe
EXTD=
EXTT0=
EXTT1=
EXTT2=
EXTT3=
EXTT4=
EXTT5=
EXTT6=
EXTT7=
EXTT8=
EXTT9=
EXTT10=
EXTT11=
EXTT12=
EXTT13=
EXTT14=
EXTT15=
EXTT16=
EXTT17=
PLAYORDER=
